# xmcd CD database file
#
# Track frame offsets:
#	150
#	17582
#	33230
#	45342
#	57057
#	68937
#	81930
#	97005
#	113377
#	132032
#	157112
#	179570
#	201077
#	218847
#	236002
#	250830
#	263492
#	272532
#	284672
#	301595
#
# Disc length: 4193 seconds
#
# Revision: 3
# Processed by: cddbd v1.5.1PL2 Copyright (c) Steve Scherf et al.
# Submitted via: CDex 1.51
#
DISCID=0d105f14
DTITLE=Fleetwood Mac - Like It This Way
DYEAR=1973
DGENRE=Blues
TTITLE0=Like It This Way
TTITLE1=Need Your Love Tonight
TTITLE2=Rambling Pony
TTITLE3=Lazy Poker Blues
TTITLE4=The Big Boat
TTITLE5=Dust My Broom
TTITLE6=Home Work
TTITLE7=I Can't Hold Out
TTITLE8=Merry Go Round
TTITLE9=Just The Blues
TTITLE10=Last Night
TTITLE11=Trying So Hard To Forget
TTITLE12=Something Inside Of Me
TTITLE13=Rockin' Boogie
TTITLE14=Cold Black Night
TTITLE15=Dragonfly
TTITLE16=Hellhound On My Trail
TTITLE17=Evening Boogie
TTITLE18=Doctor Brown
TTITLE19=Rollin' Man
EXTD=YEAR: 1973
EXTT0=
EXTT1=
EXTT2=
EXTT3=
EXTT4=
EXTT5=
EXTT6=
EXTT7=
EXTT8=
EXTT9=
EXTT10=
EXTT11=
EXTT12=
EXTT13=
EXTT14=
EXTT15=
EXTT16=
EXTT17=
EXTT18=
EXTT19=
PLAYORDER=
